<svg width="60" height="60" viewBox="0 0 60 60" fill="none" xmlns="http://www.w3.org/2000/svg">
<g clip-path="url(#clip0_15_605)">
<path d="M0 30C0 46.5818 13.4182 60 30 60C46.5818 60 60 46.5818 60 30C60 13.4182 46.5818 0 30 0C13.4182 0 0 13.4182 0 30ZM57 30C57 44.8909 44.8909 57 30 57C15.1091 57 3 44.8909 3 30C3 15.1091 15.1091 3 30 3C44.8909 3 57 15.1091 57 30Z" fill="#9400D3"/>
<path d="M18.3818 33.4909C17.8364 34.0909 17.8909 35.0727 18.5455 35.6182C19.1455 36.1636 20.1273 36.1091 20.6727 35.4545L30.0545 24.7636L39.4364 35.4545C39.9818 36.0545 40.9091 36.1636 41.5636 35.6182C42.1636 35.0727 42.2727 34.1455 41.7273 33.4909L31.2 21.4909C30.9273 21.1636 30.4909 21 30.0545 21C29.6182 21 29.2364 21.1636 28.9091 21.4909L18.4364 33.4909H18.3818Z" fill="#9400D3"/>
</g>
<defs>
<clipPath id="clip0_15_605">
<path d="M30 0C46.5685 0 60 13.4315 60 30C60 46.5685 46.5685 60 30 60C13.4315 60 0 46.5685 0 30C0 13.4315 13.4315 0 30 0Z" fill="white"/>
</clipPath>
</defs>
</svg>
