<svg width="20" height="11" viewBox="0 0 20 11" fill="none" xmlns="http://www.w3.org/2000/svg">
<path d="M19.525 2.1999L11.125 10.6249C11.025 10.7249 10.9166 10.7956 10.8 10.8369C10.6833 10.8789 10.5583 10.8999 10.425 10.8999C10.2916 10.8999 10.1666 10.8789 10.05 10.8369C9.93328 10.7956 9.82495 10.7249 9.72495 10.6249L1.29995 2.1999C1.06662 1.96657 0.949951 1.6749 0.949951 1.3249C0.949951 0.974902 1.07495 0.674903 1.32495 0.424903C1.57495 0.174903 1.86662 0.0499029 2.19995 0.0499029C2.53328 0.0499029 2.82495 0.174903 3.07495 0.424903L10.425 7.7749L17.775 0.424903C18.0083 0.191569 18.2956 0.0749025 18.637 0.0749025C18.979 0.0749025 19.275 0.199903 19.525 0.449903C19.775 0.699903 19.9 0.99157 19.9 1.3249C19.9 1.65824 19.775 1.9499 19.525 2.1999Z" fill="white"/>
</svg>
