<svg width="11" height="20" viewBox="0 0 11 20" fill="none" xmlns="http://www.w3.org/2000/svg">
<path d="M2.20002 1.3249L10.625 9.7249C10.725 9.8249 10.7957 9.93324 10.837 10.0499C10.879 10.1666 10.9 10.2916 10.9 10.4249C10.9 10.5582 10.879 10.6832 10.837 10.7999C10.7957 10.9166 10.725 11.0249 10.625 11.1249L2.20002 19.5499C1.96669 19.7832 1.67502 19.8999 1.32502 19.8999C0.975024 19.8999 0.675025 19.7749 0.425025 19.5249C0.175025 19.2749 0.050025 18.9832 0.050025 18.6499C0.050025 18.3166 0.175025 18.0249 0.425025 17.7749L7.77502 10.4249L0.425025 3.0749C0.191691 2.84157 0.0750246 2.55424 0.0750246 2.2129C0.0750246 1.8709 0.200025 1.5749 0.450025 1.3249C0.700025 1.0749 0.991692 0.949902 1.32502 0.949902C1.65836 0.949902 1.95002 1.0749 2.20002 1.3249Z" fill="white"/>
</svg>
